PathFileType	4	(X/Y/Z)	C:/Users/opensim2020/Desktop/walking_exp_matlab/subject06_walking18_straight_02.trc	
DataRate	CameraRate	NumFrames	NumMarkers	Units	OrigDataRate	OrigDataStartFrame	OrigNumFrames	
100.00	100.00	8	47	mm	100.00	2496	326	
Frame#	Time	LFHD			RFHD			LBHD			RBHD			C7			T10			CLAV			STRN			RBAK			LSHO			LUPA			LELB			LFRM			LWRA			LWRB			LFIN			RSHO			RUPA			RELB			RFRM			RWRA			RWRB			RFIN			LASI			RASI			LPSI			RPSI			LTHI			LKNE			LTIB			LANK			LHEE			LTOE			RTHI			RKNE			RTIB			RANK			RHEE			RTOE			*39			*40			*41			*42			*43			*44			*45			*46			
		X1	Y1	Z1	X2	Y2	Z2	X3	Y3	Z3	X4	Y4	Z4	X5	Y5	Z5	X6	Y6	Z6	X7	Y7	Z7	X8	Y8	Z8	X9	Y9	Z9	X10	Y10	Z10	X11	Y11	Z11	X12	Y12	Z12	X13	Y13	Z13	X14	Y14	Z14	X15	Y15	Z15	X16	Y16	Z16	X17	Y17	Z17	X18	Y18	Z18	X19	Y19	Z19	X20	Y20	Z20	X21	Y21	Z21	X22	Y22	Z22	X23	Y23	Z23	X24	Y24	Z24	X25	Y25	Z25	X26	Y26	Z26	X27	Y27	Z27	X28	Y28	Z28	X29	Y29	Z29	X30	Y30	Z30	X31	Y31	Z31	X32	Y32	Z32	X33	Y33	Z33	X34	Y34	Z34	X35	Y35	Z35	X36	Y36	Z36	X37	Y37	Z37	X38	Y38	Z38	X39	Y39	Z39	X40	Y40	Z40	X41	Y41	Z41	X42	Y42	Z42	X43	Y43	Z43	X44	Y44	Z44	X45	Y45	Z45	X46	Y46	Z46	X47	Y47	Z47	

245	2.440	-978.55151	-200.06110	1671.69495	-1109.84229	-207.39873	1660.55359	-984.88269	-69.72327	1610.70056	-1113.85242	-79.19128	1604.88464	-1040.93530	-76.35155	1456.40857	-1056.04578	-43.93495	1128.15027	-1038.23022	-186.23125	1380.35217	-1032.38379	-224.66632	1203.27844	-1127.95959	-8.35303	1286.20813	-877.86060	-126.15614	1408.79871	-806.87549	-111.13637	1206.75134	-792.93677	-100.53426	1095.54285	-760.75153	-122.11039	948.65875	-787.22418	-190.69035	834.29883	-759.95270	-125.04595	829.07227	-748.76331	-168.05382	749.56036	-1200.30396	-148.44888	1414.07263	-1291.29199	-131.88951	1214.12256	-1299.60522	-153.93852	1093.49658	-1306.85376	-195.58849	980.36438	-1256.45178	-280.45078	861.55377	-1304.61438	-235.49725	849.25146	-1296.88660	-289.18668	784.80902	-931.66095	-211.14439	968.07294	-1152.12219	-223.00143	967.26996	-966.96600	-54.73116	996.32965	-1135.73413	-69.87581	998.58850	-861.47681	-191.14706	658.22656	-884.60870	-240.85486	501.91049	-896.23920	-185.04343	255.76736	-934.10205	-173.61841	82.91827	-986.83057	-143.24004	68.12797	-912.08636	-311.44568	45.47565	-1197.48413	-150.23882	633.68298	-1171.77893	-139.74467	508.71143	-1164.23694	-66.93389	251.93745	-1117.25757	-30.51650	67.34358	-1076.29993	14.48643	43.35448	-1098.73364	-181.67419	34.58590	-1043.05444	-101.37200	1704.89429																					 
246	2.450	-977.87958	-206.06462	1671.02197	-1109.23877	-213.49164	1659.98938	-984.44324	-75.56111	1610.33667	-1113.44336	-85.21286	1604.60083	-1040.70911	-81.74090	1456.09778	-1055.90906	-49.29280	1127.74927	-1037.87695	-191.73161	1379.81189	-1032.22192	-229.93875	1202.72058	-1127.92334	-13.67084	1285.92224	-877.52399	-131.41039	1408.27856	-806.65033	-115.23777	1206.38171	-792.73169	-103.81758	1095.27124	-760.70654	-124.14127	948.11572	-786.57123	-191.71445	833.22723	-759.42114	-126.05254	828.57947	-748.22888	-168.17201	748.74402	-1199.96655	-154.11597	1413.76257	-1291.11145	-137.64561	1213.87695	-1299.55261	-159.89897	1093.29724	-1306.67932	-201.85095	980.31665	-1255.99841	-286.89917	861.80438	-1304.12402	-241.97426	849.23914	-1296.40002	-296.05643	785.06915	-931.60687	-216.56679	967.59528	-1152.14209	-228.02629	966.77130	-966.86267	-60.13134	995.84174	-1135.67444	-74.95958	998.05377	-861.26489	-195.06265	657.52594	-884.59058	-246.86131	501.83203	-895.72986	-199.60269	253.86044	-933.26801	-195.34395	80.52045	-985.90668	-165.49304	64.62840	-910.56018	-334.17966	47.36929	-1197.02539	-154.41330	633.12720	-1171.24414	-143.42834	508.18503	-1163.79529	-68.78685	251.81464	-1117.03772	-30.81405	67.47041	-1076.15320	14.42179	43.58894	-1098.61963	-181.77385	34.53315	-1042.49915	-107.49572	1704.49634																					 
247	2.460	-977.23688	-212.04645	1670.26514	-1108.57336	-219.52211	1659.31519	-983.94061	-81.38018	1609.92603	-1113.38269	-90.58948	1604.34521	-1040.30457	-87.40851	1455.51099	-1055.88013	-54.40993	1127.33582	-1037.49963	-197.17299	1379.18909	-1032.02844	-235.21803	1202.04529	-1127.77100	-19.20582	1285.68738	-877.21149	-136.73541	1407.75037	-806.40906	-119.33936	1206.02222	-792.49548	-107.08814	1094.99316	-760.10950	-126.03967	947.56677	-785.85919	-192.99435	832.28174	-758.99396	-127.07530	828.24048	-747.70380	-168.61644	747.91791	-1199.54980	-159.81621	1413.37317	-1290.97595	-143.27338	1213.59534	-1299.45935	-165.71446	1093.06421	-1306.49011	-208.01703	980.21027	-1255.56787	-293.20255	861.94653	-1303.83801	-248.53117	849.24725	-1295.90308	-302.90573	785.26868	-931.63031	-222.08870	967.12219	-1152.13892	-233.02374	966.17950	-966.71777	-65.50919	995.34552	-1135.55859	-80.03114	997.45892	-861.15594	-199.49522	656.87256	-884.60583	-252.87433	501.68884	-895.26917	-213.98466	252.15266	-932.18469	-216.53775	78.60630	-985.05383	-186.28238	62.30405	-908.96832	-356.90970	49.75908	-1196.52454	-158.70505	632.45624	-1170.75903	-147.16560	507.54645	-1163.44580	-70.63889	251.65654	-1116.87427	-31.10073	67.57854	-1076.01160	14.33329	43.79486	-1098.55481	-181.91507	34.43371	-1041.89441	-113.69675	1703.92542																					 
248	2.470	-976.47028	-217.91643	1669.61597	-1107.87561	-225.58092	1658.61292	-983.33624	-87.29635	1609.37439	-1112.81079	-96.53621	1603.94849	-1039.90259	-93.09399	1454.90955	-1055.63354	-59.77444	1126.81177	-1037.03821	-202.65211	1378.51697	-1031.78699	-240.59549	1201.38989	-1127.72363	-24.65243	1285.43799	-876.84741	-142.03542	1407.15234	-806.11121	-123.38136	1205.61060	-792.25073	-110.32022	1094.66211	-759.78503	-127.95076	947.13788	-785.17816	-194.65393	831.62097	-758.61005	-128.25270	827.81921	-747.12787	-169.26050	747.16150	-1199.11682	-165.48170	1412.96387	-1290.76025	-148.97041	1213.28882	-1299.34253	-171.58990	1092.75732	-1306.29102	-214.16707	980.03473	-1255.12219	-299.49234	862.05194	-1303.71362	-255.16620	849.31897	-1295.38245	-309.60739	785.35773	-931.59125	-227.64615	966.63708	-1152.14941	-238.12685	965.52161	-966.50970	-71.00988	994.80792	-1135.39197	-85.24874	996.76868	-860.92529	-204.29002	656.24817	-884.53973	-258.90439	501.41226	-894.66907	-228.24687	250.69505	-931.06750	-237.35262	77.15429	-985.82269	-210.58194	57.97162	-907.48547	-378.73743	52.35598	-1195.99744	-163.11638	631.75500	-1170.31274	-151.01530	506.98398	-1163.22070	-72.42565	251.46320	-1116.78015	-31.31804	67.63254	-1076.09790	15.16972	44.67427	-1098.52722	-182.01483	34.30899	-1041.27441	-119.71803	1703.48730																					 
249	2.480	-975.81134	-223.94484	1668.80542	-1107.16980	-231.70497	1657.88428	-982.88354	-93.08599	1608.94458	-1111.83765	-102.93975	1603.43567	-1039.66602	-98.40416	1454.51465	-1055.39001	-65.19630	1126.23230	-1036.55164	-208.21326	1377.84106	-1031.49744	-246.02740	1200.68262	-1127.49902	-30.17016	1284.91772	-876.43311	-147.41658	1406.45764	-805.74951	-127.42354	1205.17505	-791.99939	-113.46781	1094.32239	-759.28180	-130.21484	946.66699	-784.76837	-196.15392	830.60022	-758.24213	-129.68343	827.32813	-746.63849	-170.12083	746.45441	-1198.58972	-171.22525	1412.46899	-1290.49976	-154.63106	1212.96289	-1299.23572	-177.32869	1092.42883	-1306.08667	-220.14517	979.83649	-1254.63647	-305.67606	862.00757	-1303.38464	-261.54004	849.17871	-1294.85693	-316.09180	785.38861	-931.56470	-233.29088	966.05945	-1152.19031	-243.30211	964.85736	-966.32111	-76.57471	994.18420	-1135.24902	-90.49215	996.03357	-860.60748	-209.15598	655.81976	-884.44666	-264.85107	501.12497	-894.11560	-242.27209	249.39946	-929.97314	-257.69336	76.17519	-983.22565	-229.30211	58.09093	-906.18982	-399.94907	55.17329	-1195.58740	-167.38496	631.02374	-1170.10547	-154.68018	506.17996	-1163.06738	-74.18049	251.25586	-1116.77551	-31.51723	67.70444	-1075.95337	14.29099	44.24263	-1098.59412	-182.12831	34.07705	-1040.60352	-125.88831	1702.98767																					 
250	2.490	-975.07422	-230.04646	1667.81812	-1106.39160	-237.78362	1657.09229	-982.18762	-99.00771	1608.38745	-1111.60583	-108.44640	1603.06213	-1039.16357	-104.06353	1453.91687	-1055.17932	-70.56203	1125.59253	-1036.01965	-213.69810	1377.05737	-1031.20337	-251.43103	1199.88806	-1127.24451	-35.61637	1284.47632	-875.92084	-152.76886	1405.72949	-805.33887	-131.42039	1204.64966	-791.67798	-116.65899	1093.88330	-759.03070	-132.21909	946.23846	-784.24384	-197.59732	829.71173	-757.91827	-131.23174	826.74213	-746.26733	-171.16425	745.58368	-1198.02307	-177.00041	1411.91150	-1290.12244	-160.41437	1212.56909	-1299.06250	-183.06178	1092.01587	-1305.82910	-226.10822	979.49280	-1254.16382	-311.77725	861.88354	-1302.79688	-267.69400	848.76410	-1294.37903	-322.53702	785.24640	-931.54657	-239.01630	965.43524	-1152.22937	-248.48705	964.13586	-966.10590	-82.24395	993.51196	-1135.06934	-95.69648	995.31226	-860.10596	-214.45313	655.13580	-884.18286	-270.92484	500.72653	-893.51733	-256.13947	248.32675	-928.95074	-277.50983	75.56760	-983.85602	-252.13765	54.97885	-905.05139	-420.56012	58.12588	-1195.22424	-171.69461	630.31537	-1169.93933	-158.51364	505.41696	-1162.96533	-75.97364	251.02017	-1116.81555	-31.68366	67.74453	-1076.16284	15.13940	45.14889	-1098.56091	-182.11137	33.88642	-1039.89014	-131.98691	1702.40857																					 
251	2.500	-974.27869	-236.01353	1666.99268	-1105.55334	-243.84334	1656.28882	-981.50641	-104.86343	1607.81982	-1110.89001	-114.42104	1602.54150	-1038.58679	-109.87382	1453.15942	-1054.77600	-76.15205	1124.81750	-1035.43726	-219.38689	1376.29846	-1030.85693	-256.98486	1199.10950	-1126.85571	-41.26701	1283.98340	-875.39148	-158.10471	1404.92017	-804.92865	-135.40392	1204.03955	-791.31964	-119.91061	1093.34814	-758.72125	-134.34184	945.60400	-783.47333	-199.57118	828.80774	-757.56647	-132.84480	826.16809	-745.72968	-172.36644	744.80682	-1197.42639	-182.75790	1411.28528	-1289.84033	-166.05327	1212.06384	-1298.86377	-188.76471	1091.52136	-1305.58252	-232.02496	979.06427	-1253.74243	-317.78787	861.59583	-1302.69934	-273.99469	848.62036	-1293.91663	-328.82739	785.01318	-931.49457	-244.94586	964.73248	-1152.26575	-253.59776	963.29504	-965.75867	-88.02103	992.75830	-1134.78040	-100.93220	994.55432	-859.41711	-220.28259	654.50934	-883.74091	-277.05939	500.30746	-892.89105	-269.78671	247.31761	-927.96906	-296.80460	75.24482	-982.98669	-271.95096	54.10160	-904.21991	-440.53604	61.28282	-1194.88513	-176.01918	629.57129	-1169.90491	-162.35019	504.66760	-1162.77356	-77.94418	250.80005	-1116.89404	-31.94049	67.83990	-1076.26550	15.02717	45.39567	-1098.64551	-182.24940	33.70770	-1039.08557	-138.11868	1701.78271																					 
252	2.510	-973.33856	-241.89928	1666.05762	-1104.68909	-249.85544	1655.44543	-980.75293	-110.74564	1607.11804	-1109.71350	-120.83100	1601.86975	-1038.02271	-115.48463	1452.31140	-1054.27161	-81.79157	1124.04468	-1034.79407	-224.98155	1375.44238	-1030.49536	-262.60281	1198.29773	-1126.45679	-46.82993	1283.27234	-874.87134	-163.24966	1403.96460	-804.44995	-139.47636	1203.37659	-790.96271	-123.15512	1092.75720	-758.25287	-136.73480	944.85541	-782.76862	-201.54176	827.91937	-757.23047	-134.68343	825.49670	-745.26691	-173.70480	743.92261	-1196.80579	-188.48604	1410.60010	-1289.47607	-171.79579	1211.51233	-1298.64954	-194.49303	1090.96387	-1305.28284	-237.89197	978.56683	-1253.33423	-323.73419	861.21216	-1302.35168	-280.01221	848.17773	-1293.42773	-335.06516	784.69617	-931.50665	-250.96205	964.01495	-1152.27979	-258.75922	962.52917	-965.28186	-93.86927	991.95154	-1134.37158	-106.14397	993.76434	-858.64105	-226.36223	653.90955	-883.25983	-283.12277	499.79379	-892.18518	-283.04242	246.55595	-926.91754	-315.28247	75.31458	-982.13434	-291.03732	53.51886	-903.65698	-459.70941	64.62640	-1194.54553	-180.37961	628.81543	-1169.76343	-166.37901	503.91180	-1162.57300	-80.01175	250.58177	-1116.85999	-32.20077	67.94995	-1076.29260	15.00059	45.71531	-1098.69678	-182.38327	33.55081	-1038.24451	-144.23271	1701.07764																					 
